<?xml version="1.0" encoding="UTF-8" standalone="no"?>
<svg width="960px" height="232px" viewBox="0 0 960 232" version="1.1" xmlns="http://www.w3.org/2000/svg" xmlns:xlink="http://www.w3.org/1999/xlink">
    <!-- Generator: Sketch 39 (31667) - http://www.bohemiancoding.com/sketch -->
    <title>Combined Shape</title>
    <desc>Created with Sketch.</desc>
    <defs></defs>
    <g id="Page-2-Copy" stroke="none" stroke-width="1" fill="none" fill-rule="evenodd">
        <path d="M0,0 L960,0 L960,232 L0,232 L0,0 Z M161.704347,143.380219 C161.704347,141.85286 161.49097,140.47152 161.064208,139.236157 C160.637446,138.000793 159.795165,136.832831 158.537341,135.732234 C157.279516,134.631638 155.516342,133.542288 153.247766,132.464153 C150.979189,131.386018 148.003131,130.240516 144.319502,129.027614 C140.006961,127.5901 135.85171,125.972921 131.853625,124.176029 C127.85554,122.379137 124.306731,120.245359 121.207092,117.774633 C118.107453,115.303906 115.625532,112.417691 113.761257,109.115902 C111.896981,105.814112 110.964857,101.962082 110.964857,97.5596964 C110.964857,93.3369997 111.908212,89.5298915 113.794948,86.1382574 C115.681685,82.7466234 118.309601,79.8604086 121.678774,77.4795264 C125.047946,75.0986442 129.034741,73.2568574 133.639277,71.9541105 C138.243814,70.6513637 143.263806,70 148.699405,70 C154.045159,70 158.964078,70.7187461 163.456308,72.1562599 C167.948539,73.5937736 171.811799,75.6377079 175.046205,78.2881239 C178.280611,80.9385399 180.807453,84.1392061 182.626806,87.8902186 C184.44616,91.6412311 185.355823,95.8301732 185.355823,100.457171 L161.77173,100.457171 C161.77173,98.6153561 161.49097,96.9195645 160.929441,95.369745 C160.367913,93.8199255 159.514402,92.4947373 158.368883,91.3941409 C157.223364,90.2935444 155.808333,89.428803 154.123746,88.7998907 C152.43916,88.1709784 150.451378,87.856527 148.16034,87.856527 C145.914225,87.856527 143.937673,88.1148264 142.230625,88.6314329 C140.523578,89.1480394 139.097316,89.8667855 137.951797,90.7876928 C136.806278,91.7086 135.941537,92.7642584 135.357547,93.9546995 C134.773557,95.1451406 134.481566,96.4141766 134.481566,97.7618458 C134.481566,99.2442819 134.897092,100.5807 135.728154,101.771141 C136.559217,102.961583 137.74964,104.084623 139.29946,105.140298 C140.849279,106.195972 142.735988,107.184248 144.959642,108.105155 C147.183296,109.026062 149.687677,109.935725 152.47286,110.834171 C157.683847,112.496297 162.333236,114.338083 166.421166,116.359587 C170.509096,118.381091 173.956831,120.694555 176.764475,123.300049 C179.572119,125.905542 181.705896,128.847909 183.165871,132.127237 C184.625846,135.406566 185.355823,139.1126 185.355823,143.245452 C185.355823,147.647838 184.491081,151.567251 182.761573,155.003807 C181.032064,158.440363 178.583835,161.326578 175.416812,163.662538 C172.24979,165.998498 168.431451,167.772902 163.961682,168.985805 C159.491913,170.198707 154.516842,170.805149 149.036321,170.805149 C145.667148,170.805149 142.320486,170.524389 138.996236,169.96286 C135.671985,169.401331 132.49378,168.53659 129.461524,167.36861 C126.429268,166.20063 123.599206,164.729446 120.971251,162.955015 C118.343296,161.180584 116.074754,159.058037 114.165556,156.58731 C112.256358,154.116584 110.751483,151.308982 109.650886,148.16442 C108.55029,145.019859 108,141.515972 108,137.652653 L131.718859,137.652653 C131.718859,140.527681 132.100692,142.942219 132.864372,144.896339 C133.628051,146.850459 134.751092,148.433947 136.233528,149.646849 C137.715964,150.859751 139.524059,151.724492 141.657869,152.241099 C143.791678,152.757706 146.251138,153.016005 149.036321,153.016005 C151.282436,153.016005 153.202836,152.757706 154.797577,152.241099 C156.392319,151.724492 157.706277,151.028207 158.73949,150.152222 C159.772703,149.276237 160.52514,148.25427 160.996825,147.08629 C161.468509,145.91831 161.704347,144.682965 161.704347,143.380219 Z M283.836351,71.3476624 L283.836351,135.42901 C283.836351,141.179065 282.915458,146.25521 281.073643,150.657596 C279.231829,155.059982 276.626374,158.754786 273.257201,161.742119 C269.888028,164.729452 265.833851,166.986764 261.094548,168.514123 C256.355245,170.041481 251.088183,170.805149 245.293206,170.805149 C239.543151,170.805149 234.28732,170.041481 229.525556,168.514123 C224.763791,166.986764 220.687153,164.729452 217.295519,161.742119 C213.903885,158.754786 211.264739,155.059982 209.378003,150.657596 C207.491266,146.25521 206.547912,141.179065 206.547912,135.42901 L206.547912,71.3476624 L230.334153,71.3476624 L230.334153,135.42901 C230.334153,141.493522 231.62565,145.873381 234.208683,148.568719 C236.791715,151.264057 240.486519,152.611706 245.293206,152.611706 C250.189737,152.611706 253.895772,151.264057 256.411421,148.568719 C258.92707,145.873381 260.184876,141.493522 260.184876,135.42901 L260.184876,71.3476624 L283.836351,71.3476624 Z M331.644773,136.170225 L331.644773,169.457486 L307.993297,169.457486 L307.993297,71.3476624 L347.14289,71.3476624 C353.027712,71.3476624 358.328465,72.1787126 363.045307,73.8408379 C367.762149,75.5029632 371.760174,77.8164272 375.039503,80.7812993 C378.318831,83.7461715 380.834442,87.2612891 382.586412,91.3267578 C384.338382,95.3922264 385.214354,99.8282375 385.214354,104.634924 C385.214354,109.396688 384.338382,113.709165 382.586412,117.572483 C380.834442,121.435802 378.318831,124.748772 375.039503,127.511494 C371.760174,130.274215 367.762149,132.407993 363.045307,133.91289 C358.328465,135.417787 353.027712,136.170225 347.14289,136.170225 L331.644773,136.170225 Z M457.819764,143.380219 C457.819764,141.85286 457.606386,140.47152 457.179624,139.236157 C456.752862,138.000793 455.910582,136.832831 454.652757,135.732234 C453.394933,134.631638 451.631759,133.542288 449.363182,132.464153 C447.094606,131.386018 444.118548,130.240516 440.434919,129.027614 C436.122377,127.5901 431.967126,125.972921 427.969041,124.176029 C423.970956,122.379137 420.422147,120.245359 417.322508,117.774633 C414.222869,115.303906 411.740949,112.417691 409.876673,109.115902 C408.012398,105.814112 407.080274,101.962082 407.080274,97.5596964 C407.080274,93.3369997 408.023628,89.5298915 409.910365,86.1382574 C411.797102,82.7466234 414.425017,79.8604086 417.79419,77.4795264 C421.163363,75.0986442 425.150158,73.2568574 429.754694,71.9541105 C434.35923,70.6513637 439.379223,70 444.814821,70 C450.160576,70 455.079494,70.7187461 459.571725,72.1562599 C464.063955,73.5937736 467.927216,75.6377079 471.161622,78.2881239 C474.396028,80.9385399 476.922869,84.1392061 478.742223,87.8902186 C480.561576,91.6412311 481.471239,95.8301732 481.471239,100.457171 L457.887147,100.457171 C457.887147,98.6153561 457.606387,96.9195645 457.044858,95.369745 C456.483329,93.8199255 455.629818,92.4947373 454.484299,91.3941409 C453.33878,90.2935444 451.923749,89.428803 450.239163,88.7998907 C448.554576,88.1709784 446.566794,87.856527 444.275756,87.856527 C442.029641,87.856527 440.053089,88.1148264 438.346042,88.6314329 C436.638994,89.1480394 435.212732,89.8667855 434.067214,90.7876928 C432.921695,91.7086 432.056953,92.7642584 431.472964,93.9546995 C430.888974,95.1451406 430.596983,96.4141766 430.596983,97.7618458 C430.596983,99.2442819 431.012508,100.5807 431.843571,101.771141 C432.674633,102.961583 433.865057,104.084623 435.414876,105.140298 C436.964696,106.195972 438.851404,107.184248 441.075058,108.105155 C443.298712,109.026062 445.803093,109.935725 448.588276,110.834171 C453.799264,112.496297 458.448652,114.338083 462.536582,116.359587 C466.624512,118.381091 470.072247,120.694555 472.879891,123.300049 C475.687535,125.905542 477.821313,128.847909 479.281288,132.127237 C480.741263,135.406566 481.471239,139.1126 481.471239,143.245452 C481.471239,147.647838 480.606498,151.567251 478.876989,155.003807 C477.14748,158.440363 474.699251,161.326578 471.532229,163.662538 C468.365206,165.998498 464.546868,167.772902 460.077098,168.985805 C455.607329,170.198707 450.632258,170.805149 445.151737,170.805149 C441.782564,170.805149 438.435903,170.524389 435.111652,169.96286 C431.787401,169.401331 428.609196,168.53659 425.57694,167.36861 C422.544685,166.20063 419.714622,164.729446 417.086667,162.955015 C414.458712,161.180584 412.19017,159.058037 410.280972,156.58731 C408.371774,154.116584 406.866899,151.308982 405.766303,148.16442 C404.665706,145.019859 404.115416,141.515972 404.115416,137.652653 L427.834275,137.652653 C427.834275,140.527681 428.216109,142.942219 428.979788,144.896339 C429.743467,146.850459 430.866508,148.433947 432.348944,149.646849 C433.83138,150.859751 435.639476,151.724492 437.773285,152.241099 C439.907095,152.757706 442.366554,153.016005 445.151737,153.016005 C447.397852,153.016005 449.318252,152.757706 450.912994,152.241099 C452.507736,151.724492 453.821693,151.028207 454.854906,150.152222 C455.888119,149.276237 456.640557,148.25427 457.112241,147.08629 C457.583925,145.91831 457.819764,144.682965 457.819764,143.380219 Z M580.019151,89.6084882 L550.572727,89.6084882 L550.572727,169.457486 L526.921251,169.457486 L526.921251,89.6084882 L498.013893,89.6084882 L498.013893,71.3476624 L580.019151,71.3476624 L580.019151,89.6084882 Z M647.031762,151.129278 L614.620481,151.129278 L608.960298,169.457486 L583.691628,169.457486 L619.674215,71.3476624 L641.910644,71.3476624 L678.162764,169.457486 L652.759327,169.457486 L647.031762,151.129278 Z M763.63835,89.6084882 L734.191926,89.6084882 L734.191926,169.457486 L710.54045,169.457486 L710.54045,89.6084882 L681.633092,89.6084882 L681.633092,71.3476624 L763.63835,71.3476624 L763.63835,89.6084882 Z M843.858052,127.882101 L806.66257,127.882101 L806.66257,151.264044 L850.596364,151.264044 L850.596364,169.457486 L783.011094,169.457486 L783.011094,71.3476624 L850.731131,71.3476624 L850.731131,89.6084882 L806.66257,89.6084882 L806.66257,110.295106 L843.858052,110.295106 L843.858052,127.882101 Z" id="Combined-Shape" fill="#FFFFFF"></path>
    </g>
</svg>